<?xml version="1.0" standalone="no"?>
<!DOCTYPE svg PUBLIC "-//W3C//DTD SVG 20010904//EN"
 "http://www.w3.org/TR/2001/REC-SVG-20010904/DTD/svg10.dtd">
<svg version="1.0" xmlns="http://www.w3.org/2000/svg"
 width="400.000000pt" height="400.000000pt" viewBox="0 0 400.000000 400.000000"
 preserveAspectRatio="xMidYMid meet">
<metadata>
Created by potrace 1.11, written by Peter Selinger 2001-2013
</metadata>
<g transform="translate(0.000000,400.000000) scale(0.100000,-0.100000)"
fill="#000000" stroke="none">
<path d="M120 1995 l0 -1885 305 0 305 0 0 1580 0 1581 663 -3 c656 -3 662 -3
702 -25 51 -27 89 -67 112 -118 17 -38 18 -100 21 -1012 l2 -972 305 0 305 0
0 987 c-1 930 -2 994 -20 1100 -56 322 -224 519 -520 608 -44 13 -64 17 -165
34 -27 5 -492 9 -1032 9 l-983 1 0 -1885z"/>
<path d="M3280 2300 l0 -1581 -657 3 c-647 3 -659 3 -704 24 -25 12 -56 32
-69 45 -26 28 -57 91 -64 134 -2 17 -5 456 -5 978 l-1 947 -305 0 -306 0 3
-1027 4 -1028 26 -100 c56 -211 143 -344 287 -439 95 -62 162 -90 301 -122 69
-16 161 -18 1088 -21 l1012 -4 0 1886 0 1885 -305 0 -305 0 0 -1580z"/>
</g>
</svg>
